<svg data-name="Layer 1" viewBox="0 0 64 64" xmlns="http://www.w3.org/2000/svg"><path d="M17.22 15.12a1 1 0 0 0 1-1v-2.46a1 1 0 0 0-2 0v2.46a1 1 0 0 0 1 1ZM2 27.88h2.46a1 1 0 0 0 0-2H2a1 1 0 1 0 0 2ZM7.49 18.56a1 1 0 1 0 1.41-1.41l-1.73-1.74a1 1 0 1 0-1.41 1.41ZM6.46 38.64a1 1 0 0 0 .71-.29l1.74-1.74a1 1 0 0 0-1.42-1.41l-1.73 1.73a1 1 0 0 0 .71 1.71ZM26.25 18.86a1 1 0 0 0 .71-.29l1.74-1.74a1 1 0 0 0-1.41-1.41l-1.74 1.74a1 1 0 0 0 .71 1.71ZM54.44 36.78a1 1 0 0 1-.9-1.11 1.48 1.48 0 0 0 0-.15 5.17 5.17 0 0 0-5.17-5.17h-.07a5.18 5.18 0 0 0-.91.09h-.16a5.12 5.12 0 0 0-.75.23l-.23.1a5.16 5.16 0 0 0-2.31 7.34 1 1 0 1 1-1.72 1 7.16 7.16 0 0 1 2.25-9.67 11.48 11.48 0 0 0-11-8.33H31.76l-.51.08-.37.09-.43.11a12 12 0 0 0-1.42.5l-.51.23a10.38 10.38 0 0 0-1 .52l-.46.3c-.17.1-.27.18-.38.26l-.09.07-.24.19-.71.61c-.1.09-.19.18-.29.27l-.37.39c-.14.15-.25.27-.35.41s-.25.31-.36.45a4.06 4.06 0 0 0-.26.37 10.46 10.46 0 0 0-.87 1.49c-.08.17-.16.33-.23.5s-.18.42-.25.62-.1.28-.14.41-.11.37-.16.54-.1.4-.14.58a11.56 11.56 0 0 0-.23 2.3v.85a1 1 0 0 1-.91 1.08H21a1 1 0 0 1-1-.92v-1.76A9.9 9.9 0 0 0 13.48 35a9.75 9.75 0 0 0 7.21 16.31h33a7.3 7.3 0 0 0 .73-14.56ZM23 38.71a1 1 0 0 1-1.36-.39q-.31-.56-.57-1.14a1 1 0 0 1 1.82-.83q.23.51.5 1a1 1 0 0 1-.39 1.36Z" fill="#325e52" class="fill-000000"></path><path d="m12.61 33.06.13-.11.36-.31.51-.41L14 32l.54-.36.41-.24.57-.3.43-.2.61-.25.43-.16.66-.19.42-.11c.25-.06.49-.1.74-.14l.36-.06c.37 0 .75-.08 1.13-.09 0-.19.09-.4.14-.59 0-.16.09-.33.15-.52s.12-.39.18-.56.18-.47.28-.71c.09-.21.18-.41.28-.61a11.75 11.75 0 0 1 .95-1.64 6 6 0 0 1 .35-.5c.12-.16.25-.32.38-.47.1-.13.25-.31.41-.48l.41-.43a7.69 7.69 0 1 0-11.32 9.91Z" fill="#325e52" class="fill-000000"></path></svg>